<svg width="143" height="255" viewBox="0 0 143 255" fill="none" xmlns="http://www.w3.org/2000/svg">
<g clip-path="url(#clip0_33_4743)">
<path d="M104.296 0H24.5581C12.1565 0 2.10303 10.0535 2.10303 22.4551V204.664C2.10303 217.065 12.1565 227.119 24.5581 227.119H104.296C116.697 227.119 126.751 217.065 126.751 204.664V22.4551C126.751 10.0535 116.697 0 104.296 0Z" fill="#3F3D56"/>
<path d="M124.648 22.4563V204.664C124.642 210.06 122.495 215.233 118.68 219.048C114.864 222.864 109.691 225.01 104.295 225.016H24.5588C19.1628 225.01 13.9897 222.864 10.1741 219.048C6.3586 215.233 4.2123 210.06 4.20605 204.664V22.4563C4.2123 17.0603 6.3586 11.8871 10.1741 8.0716C13.9897 4.25607 19.1628 2.10976 24.5588 2.10352H34.9856V5.7053C34.9857 7.33589 35.6335 8.89968 36.7865 10.0527C37.9395 11.2057 39.5033 11.8535 41.1339 11.8536C54.6329 15.9313 70.4784 15.2949 87.72 11.8536C89.3506 11.8535 90.9144 11.2057 92.0674 10.0527C93.2204 8.89967 93.8682 7.33589 93.8683 5.7053V2.10352H104.295C109.691 2.10976 114.864 4.25607 118.68 8.0716C122.495 11.8871 124.642 17.0603 124.648 22.4563Z" fill="white"/>
<path d="M1.52942 46.0732C1.12394 46.0728 0.73519 45.9115 0.448469 45.6248C0.161748 45.3381 0.000464495 44.9493 0 44.5438V41.485C0 41.0794 0.161134 40.6903 0.447956 40.4035C0.734777 40.1167 1.12379 39.9556 1.52942 39.9556C1.93505 39.9556 2.32406 40.1167 2.61088 40.4035C2.89771 40.6903 3.05884 41.0794 3.05884 41.485V44.5438C3.05838 44.9493 2.89709 45.3381 2.61037 45.6248C2.32365 45.9115 1.93491 46.0728 1.52942 46.0732Z" fill="#3F3D56"/>
<path d="M1.52942 61.7586C1.12393 61.7582 0.73519 61.5969 0.448469 61.3102C0.161748 61.0235 0.000463485 60.6347 0 60.2292V51.8092C0 51.4036 0.161134 51.0146 0.447956 50.7277C0.734777 50.4409 1.12379 50.2798 1.52942 50.2798C1.93505 50.2798 2.32406 50.4409 2.61088 50.7277C2.89771 51.0146 3.05884 51.4036 3.05884 51.8092V60.2292C3.05838 60.6347 2.89709 61.0235 2.61037 61.3102C2.32365 61.5969 1.93491 61.7582 1.52942 61.7586Z" fill="#3F3D56"/>
<path d="M1.52942 74.368C1.12393 74.3676 0.73519 74.2063 0.448469 73.9196C0.161748 73.6328 0.000463485 73.2441 0 72.8386V64.4186C0 64.013 0.161134 63.6239 0.447956 63.3371C0.734777 63.0503 1.12379 62.8892 1.52942 62.8892C1.93505 62.8892 2.32406 63.0503 2.61088 63.3371C2.89771 63.6239 3.05884 64.013 3.05884 64.4186V72.8386C3.05838 73.2441 2.89709 73.6328 2.61037 73.9196C2.32365 74.2063 1.9349 74.3676 1.52942 74.368Z" fill="#3F3D56"/>
<path d="M126.943 43.8838C126.537 43.8835 126.149 44.044 125.862 44.33C125.575 44.6161 125.414 45.0043 125.413 45.4094V65.9571C125.413 66.3628 125.574 66.7518 125.861 67.0386C126.148 67.3254 126.537 67.4866 126.943 67.4866C127.348 67.4866 127.737 67.3254 128.024 67.0386C128.311 66.7518 128.472 66.3628 128.472 65.9571V45.4094C128.471 45.0045 128.309 44.6167 128.022 44.3308C127.736 44.0448 127.347 43.8841 126.943 43.8838Z" fill="#3F3D56"/>
<path d="M30.4302 11.1165H20.1066C19.5996 11.1165 19.1133 10.9151 18.7548 10.5566C18.3962 10.198 18.1948 9.71178 18.1948 9.20474C18.1948 8.69771 18.3962 8.21144 18.7548 7.85291C19.1133 7.49439 19.5996 7.29297 20.1066 7.29297H30.4302C30.9372 7.29297 31.4235 7.49439 31.782 7.85291C32.1405 8.21144 32.342 8.69771 32.342 9.20474C32.342 9.71178 32.1405 10.198 31.782 10.5566C31.4235 10.9151 30.9372 11.1165 30.4302 11.1165Z" fill="#E6E6E6"/>
<path d="M90.4113 202.544C87.5343 202.724 85.9443 199.15 88.1209 197.067C88.2006 196.75 88.2578 196.523 88.3375 196.206C88.309 196.137 88.2803 196.068 88.2515 195.999C85.342 189.062 79.4509 192.956 72.5969 196.057C66.9438 198.615 61.246 201.947 65.974 214.921C66.9671 217.647 65.7761 220.732 66.4147 223.556C60.4011 210.438 57.2783 196.18 57.2582 181.749C57.257 178.128 57.4582 174.51 57.8609 170.911C58.1937 167.961 58.6554 165.032 59.2461 162.123C61.7267 150.019 66.3796 138.465 72.9792 128.02C72.1392 128.031 71.2977 128.04 70.4548 128.047C68.9382 130.524 67.5248 133.059 66.2147 135.653C66.5148 133.134 66.5641 130.592 66.362 128.063C56.1413 128.06 45.9281 127.733 36.8983 127.083C37.2408 154.757 47.4564 160.528 59.9835 147.273C60.3343 147.453 60.6762 147.633 61.027 147.804C58.0095 156.355 56.1168 165.263 55.3964 174.302C54.9885 179.635 55.0126 184.992 55.4684 190.321C55.4593 190.258 55.4503 190.195 55.4414 190.132C54.29 184.207 51.1288 178.86 46.4918 174.995C39.6046 169.337 29.8742 167.254 22.4442 162.706C18.8676 160.517 14.2844 163.346 14.9086 167.492C14.9186 167.559 14.9287 167.625 14.939 167.691C16.0466 168.142 17.125 168.662 18.168 169.247C18.7649 169.584 19.3491 169.941 19.9208 170.319C23.1787 172.474 22.0527 177.524 18.1925 178.12L18.105 178.134C18.042 178.143 17.9881 178.152 17.9252 178.161C19.8177 182.679 22.4738 186.838 25.7773 190.456C26.6985 218.88 41.6534 215.214 57.654 204.443H57.663C59.2879 211.503 61.6421 218.376 64.6878 224.95H89.7825C89.8725 224.671 89.9534 224.383 90.0344 224.105C87.7116 224.251 85.3796 224.112 83.0905 223.691C84.9524 221.406 86.8143 219.104 88.6761 216.819C88.7177 216.776 88.7567 216.731 88.7931 216.684C89.7375 215.515 90.6909 214.355 91.6353 213.185L91.6358 213.184C91.6862 209.6 91.2749 206.024 90.4121 202.545L90.4113 202.544Z" fill="#2DBE5F"/>
<path d="M63.6714 115.864C61.2369 109.991 56.6738 105.045 52.6554 99.968C47.8287 93.8695 37.9311 96.531 37.0807 104.262C37.0725 104.337 37.0645 104.411 37.0566 104.486C37.6535 104.823 38.2378 105.18 38.8094 105.558C42.0673 107.713 40.9414 112.763 37.0811 113.359L36.9937 113.373C37.2063 115.524 37.5822 117.656 38.118 119.75C37.4772 122.149 37.0688 124.605 36.8984 127.082C45.9283 127.733 56.1414 128.059 66.3621 128.063C66.0307 123.568 65.0312 119.142 63.6714 115.864Z" fill="#E6E6E6"/>
<path d="M89.9442 108.421C90.8401 106.639 91.4733 104.736 91.8241 102.773C91.2755 102.845 89.7553 94.4886 90.1691 93.976C89.4045 92.8157 88.036 92.2389 87.2009 91.1068C83.0478 85.4759 77.3258 86.4591 74.3387 94.1109C67.9575 97.3315 67.8958 102.673 71.8112 107.81C74.3023 111.078 74.6445 115.5 76.8302 118.999C76.6053 119.287 76.3715 119.565 76.1466 119.853C73.8207 122.843 71.6651 125.961 69.6902 129.194C70.533 129.187 71.3744 129.178 72.2146 129.166C74.1967 126.031 76.3532 123.008 78.6741 120.114C83.5379 117.46 87.4713 113.379 89.9442 108.421Z" fill="#E6E6E6"/>
<path opacity="0.1" d="M124.395 22.3738V119.698C124.395 130.921 3.95312 130.921 3.95312 119.698V22.3738C3.95937 16.9778 6.10567 11.8046 9.9212 7.98908C13.7367 4.17355 18.9099 2.02724 24.3059 2.021H34.7327V5.62278C34.7328 7.25338 35.3806 8.81716 36.5336 9.97016C37.6866 11.1232 39.2504 11.771 40.881 11.771C53.8066 15.8306 69.7638 15.1623 87.4671 11.771C89.0977 11.771 90.6615 11.1232 91.8145 9.97016C92.9675 8.81715 93.6153 7.25338 93.6154 5.62278V2.021H104.042C109.438 2.02724 114.611 4.17355 118.427 7.98908C122.242 11.8046 124.389 16.9778 124.395 22.3738Z" fill="black"/>
<path d="M75.6266 32.8911H72.1854C70.8675 32.8926 69.6041 33.4167 68.6722 34.3486C67.7404 35.2804 67.2162 36.5439 67.2148 37.8617V41.6853H61.0971C59.7792 41.6867 58.5158 42.2109 57.5839 43.1427C56.6521 44.0746 56.1279 45.3381 56.1265 46.6559V54.303C56.1279 55.6208 56.6521 56.8843 57.5839 57.8161C58.5158 58.748 59.7792 59.2722 61.0971 59.2736H68.7442C70.062 59.2722 71.3255 58.748 72.2573 57.8161C73.1892 56.8843 73.7133 55.6208 73.7148 54.303V46.6559C73.7133 45.3381 73.1892 44.0746 72.2573 43.1428C71.3255 42.2109 70.062 41.6867 68.7442 41.6853H67.9795V37.8617C67.9807 36.7466 68.4243 35.6776 69.2127 34.8891C70.0012 34.1006 71.0703 33.6571 72.1854 33.6558H75.6266C76.7417 33.6571 77.8107 34.1006 78.5992 34.8891C79.3877 35.6776 79.8312 36.7466 79.8325 37.8617V42.0676H80.5972V37.8617C80.5957 36.5439 80.0716 35.2804 79.1397 34.3486C78.2079 33.4167 76.9444 32.8926 75.6266 32.8911ZM72.9501 46.6559V54.303C72.9488 55.4181 72.5053 56.4871 71.7168 57.2756C70.9283 58.0641 69.8593 58.5076 68.7442 58.5089H61.0971C59.982 58.5076 58.9129 58.0641 58.1244 57.2756C57.336 56.4871 56.8924 55.4181 56.8912 54.303V46.6559C56.8924 45.5408 57.336 44.4718 58.1244 43.6833C58.9129 42.8948 59.982 42.4512 61.0971 42.45C64.7177 44.5565 66.7125 43.467 68.7442 42.45C69.8593 42.4512 70.9283 42.8948 71.7168 43.6833C72.5053 44.4718 72.9488 45.5408 72.9501 46.6559Z" fill="white"/>
<path d="M64.9207 53.9205C65.6013 53.9205 66.2666 53.7187 66.8325 53.3405C67.3984 52.9624 67.8395 52.425 68.0999 51.7962C68.3604 51.1674 68.4285 50.4755 68.2958 49.8079C68.163 49.1404 67.8352 48.5272 67.354 48.046C66.8727 47.5647 66.2596 47.237 65.592 47.1042C64.9245 46.9714 64.2326 47.0396 63.6038 47.3C62.975 47.5605 62.4376 48.0016 62.0594 48.5675C61.6813 49.1334 61.4795 49.7987 61.4795 50.4793C61.4806 51.3916 61.8434 52.2663 62.4886 52.9114C63.1337 53.5565 64.0084 53.9194 64.9207 53.9205ZM64.9207 49.7146C66.3965 49.7146 67.5972 49.0034 67.5972 50.4793C67.5972 51.1891 67.3152 51.8699 66.8133 52.3718C66.3113 52.8738 65.6305 53.1558 64.9207 53.1558C64.2108 53.1558 63.5301 52.8738 63.0281 52.3718C62.5262 51.8699 62.2442 51.1891 62.2442 50.4793C62.2442 49.0034 63.4448 49.7146 64.9207 49.7146Z" fill="white"/>
<path d="M64.9205 51.6266C65.554 51.6266 66.0676 51.1131 66.0676 50.4796C66.0676 49.8461 65.554 49.3325 64.9205 49.3325C64.287 49.3325 63.7734 49.8461 63.7734 50.4796C63.7734 51.1131 64.287 51.6266 64.9205 51.6266Z" fill="white"/>
<path d="M128.472 55.0674H125.715V55.8321H128.472V55.0674Z" fill="white"/>
<path opacity="0.1" d="M4.12622 117.794V119.706C4.12622 130.928 124.568 130.928 124.568 119.706V117.794C124.568 129.016 4.12622 129.016 4.12622 117.794Z" fill="black"/>
<path d="M110.508 145.148C111.256 144.996 111.915 144.558 112.344 143.927C112.774 143.296 112.941 142.522 112.809 141.77C112.78 141.618 112.738 141.468 112.684 141.322L120.518 134.753L118.583 129.604L108.824 139.765C108.238 140.035 107.758 140.492 107.459 141.064C107.16 141.636 107.058 142.291 107.17 142.926C107.306 143.655 107.726 144.301 108.338 144.72C108.95 145.14 109.703 145.299 110.432 145.164C110.457 145.159 110.483 145.154 110.508 145.148Z" fill="#A0616A"/>
<path d="M114.196 106.382L111.09 108.859C111.09 108.859 107.377 115.609 110.038 117.009C112.7 118.409 120.973 123.065 120.973 123.065C120.973 123.065 117.554 126.468 117.15 128.122C116.747 129.775 117.64 131.244 116.223 130.898C114.806 130.552 114.765 131.678 114.42 133.095C114.074 134.512 111.77 135.817 111.77 135.817L116.174 139.067C116.174 139.067 118.213 139.787 118.38 138.076C118.547 136.365 118.083 136.607 119.5 136.952C120.917 137.298 122.111 135.081 122.866 133.013C123.621 130.945 131.321 121.319 131.321 121.319L123.264 112.354C120.805 109.617 117.682 107.56 114.196 106.382Z" fill="#2DBE5F"/>
<path d="M113.489 246.877L110.281 246.85L108.861 234.189L113.595 234.23L113.489 246.877Z" fill="#A0616A"/>
<path d="M103.215 251.977C103.212 252.357 103.36 252.723 103.627 252.994C103.893 253.265 104.256 253.42 104.637 253.423L111.014 253.477L112.13 251.214L112.54 253.488L114.946 253.51L114.339 245.398L113.502 245.342L110.087 245.106L108.985 245.033L108.966 247.328L103.843 250.803C103.651 250.933 103.494 251.108 103.384 251.312C103.275 251.517 103.217 251.745 103.215 251.977Z" fill="#2F2E41"/>
<path d="M84.0413 246.877L80.8341 246.85L79.4141 234.189L84.148 234.23L84.0413 246.877Z" fill="#A0616A"/>
<path d="M73.7676 251.977C73.7648 252.357 73.9128 252.723 74.1794 252.994C74.4459 253.265 74.8091 253.42 75.1894 253.423L81.5665 253.477L82.6829 251.214L83.093 253.488L85.4992 253.51L84.8916 245.398L84.0544 245.342L80.6398 245.106L79.5381 245.033L79.5188 247.328L74.396 250.803C74.2041 250.933 74.0466 251.108 73.9372 251.312C73.8277 251.517 73.7696 251.745 73.7676 251.977Z" fill="#2F2E41"/>
<path d="M92.3397 139.669C92.3397 139.669 86.1808 142.703 87.7864 144.53C89.392 146.356 88.0723 147.389 86.0711 149.104C84.0698 150.819 80.0409 170.913 80.0409 170.913L74.824 202.041C74.824 202.041 76.2081 229.22 77.1371 230.188C78.066 231.156 79.4954 229.727 78.066 231.156C76.6365 232.586 75.4929 231.442 76.6365 232.586C77.7801 233.729 78.066 236.874 78.066 236.874L85.4745 236.25C85.4745 236.25 90.2968 215.358 87.0403 206.103L99.8156 172.248L103.678 204.915C103.678 204.915 105.798 231.442 107.227 232.3C108.657 233.157 109.687 233.215 108.457 234.33C107.227 235.444 107.227 233.729 107.227 235.444V238.29L114.143 239.239C114.143 239.239 117.355 213.808 115.865 202.041L120.379 162.541L116.863 144.741L113.231 139.955L92.3397 139.669Z" fill="#2F2E41"/>
<path d="M62.6196 130.042C63.2361 130.492 64.004 130.684 64.7598 130.577C65.5157 130.47 66.1998 130.072 66.6667 129.468C66.7596 129.343 66.8422 129.212 66.9134 129.074L77.0461 130.439L79.5477 125.541L65.465 125.172C64.8704 124.921 64.2094 124.873 63.5851 125.037C62.9609 125.202 62.4085 125.568 62.0142 126.079C61.7926 126.372 61.6309 126.705 61.5383 127.061C61.4457 127.416 61.4241 127.786 61.4745 128.15C61.525 128.514 61.6466 128.864 61.8325 129.181C62.0183 129.498 62.2648 129.775 62.5577 129.997C62.5781 130.012 62.5987 130.027 62.6196 130.042Z" fill="#A0616A"/>
<path d="M93.7575 106.656L89.8339 106.028C89.8339 106.028 85.1247 108.599 85.8825 111.509C86.6403 114.419 85.9914 122.901 85.9914 122.901C85.9914 122.901 81.1725 122.667 79.6789 123.482C78.1853 124.298 77.701 125.947 77.002 124.667C76.3031 123.387 77.04 122.707 75.7598 123.406C74.4796 124.105 70.3668 124.689 70.3668 124.689L68.7134 130.319C68.7134 130.319 71.0105 133.478 72.3876 132.449C73.7647 131.42 74.0357 129.887 74.7346 131.167C75.4336 132.448 75.6286 134.834 77.6654 133.999C79.7022 133.164 94.2517 129.375 94.2517 129.375L96.0101 111.796L93.7575 106.656Z" fill="#2DBE5F"/>
<path d="M89.9283 144.01C89.9283 144.01 87.1581 139.589 87.6856 138.94C88.213 138.292 88.8735 139.413 87.6856 138.281C86.4976 137.149 93.1597 129.593 93.5972 128.48C94.0348 127.367 86.9287 107.935 86.9287 107.935L92.9809 104.29L98.096 97.0938L107.244 98.5572L110.463 105.082L115.009 106.686L115.391 107.068V118.921C115.391 118.921 117.415 129.039 112.963 132.522C112.963 132.522 115.087 137.149 114.515 138.006C113.944 138.864 124.225 150.134 116.156 151.421C107.318 152.832 88.4671 143.51 89.9283 144.01Z" fill="#2DBE5F"/>
<path d="M44.5532 253.606C44.553 253.666 44.5647 253.725 44.5875 253.781C44.6103 253.836 44.6438 253.886 44.6861 253.929C44.7284 253.971 44.7786 254.004 44.8339 254.027C44.8892 254.05 44.9484 254.062 45.0083 254.061H141.855C141.976 254.061 142.091 254.013 142.177 253.928C142.262 253.843 142.31 253.727 142.31 253.606C142.31 253.486 142.262 253.37 142.177 253.285C142.091 253.199 141.976 253.151 141.855 253.151H45.0083C44.9484 253.151 44.8892 253.163 44.8339 253.186C44.7786 253.208 44.7284 253.242 44.6861 253.284C44.6438 253.327 44.6103 253.377 44.5875 253.432C44.5647 253.487 44.553 253.547 44.5532 253.606Z" fill="#CCCCCC"/>
<path d="M104.018 98.895C109.163 98.895 113.333 94.7243 113.333 89.5796C113.333 84.4348 109.163 80.2642 104.018 80.2642C98.873 80.2642 94.7024 84.4348 94.7024 89.5796C94.7024 94.7243 98.873 98.895 104.018 98.895Z" fill="#A0616A"/>
<path d="M111.216 82.6919C111.12 81.8536 110.545 80.8174 110.146 80.0743C109.746 79.3311 108.974 78.7242 108.132 78.776C107.788 78.8159 107.459 78.9384 107.172 79.1332C106.885 79.3279 106.65 79.589 106.486 79.8943C106.165 80.509 105.99 81.1896 105.975 81.8831C105.887 83.4304 106.145 84.9778 106.731 86.4126C107.317 87.8473 108.216 89.1332 109.361 90.1766C110.014 90.7621 110.8 91.2833 111.677 91.3031C112.075 91.2936 112.467 91.2045 112.831 91.0411C113.194 90.8777 113.521 90.6434 113.792 90.3518C115.211 88.9305 115.426 86.5939 114.668 84.7339C113.91 82.8739 113.572 82.1501 111.839 81.1341" fill="#2F2E41"/>
<path d="M98.1295 96.0902C98.2853 96.919 96.852 100.86 97.31 101.571C97.31 101.571 102.053 103.218 103.866 103.337C106.081 103.48 107.863 102.571 109.935 101.203C109.973 100.461 110.187 99.7389 110.561 99.0969C110.53 99.5942 110.631 100.091 110.854 100.536C118.614 98.6086 116.715 91.6447 112.028 88.3821L108.912 81.2158C109.847 81.5274 107.025 76.7133 104.049 80.1998C100.326 76.4079 93.1132 81.8667 92.2095 86.7429C93.0791 85.6423 93.532 85.7721 93.755 86.5311C94.0114 85.8927 94.4174 85.3252 94.939 84.8766C94.6796 85.3892 94.547 85.9566 94.5526 86.531C100.426 86.8956 99.3327 90.8578 94.5187 96.7934C96.2989 95.6852 95.0976 100.461 96.0482 101.602C96.0949 100.804 97.9612 96.8661 98.1295 96.0902Z" fill="#2F2E41"/>
<path d="M106.605 88.459C106.68 88.4589 106.753 88.4317 106.81 88.3823C106.866 88.333 106.903 88.2648 106.913 88.1904C106.924 88.116 106.907 88.0403 106.866 87.9773C106.825 87.9144 106.762 87.8684 106.69 87.8478C106.623 87.4643 106.616 87.0729 106.669 86.6873C106.77 84.9661 106.94 82.0856 104.143 80.1411C104.075 80.0943 103.992 80.0762 103.911 80.0909C103.83 80.1056 103.758 80.1519 103.711 80.2196C103.663 80.2873 103.645 80.3708 103.66 80.452C103.674 80.5332 103.72 80.6053 103.788 80.6526C106.297 82.3978 106.147 84.9571 106.047 86.6506C105.99 87.6188 105.949 88.3182 106.536 88.4513C106.559 88.4565 106.582 88.4591 106.605 88.459Z" fill="#2DBE5F"/>
<path d="M106.46 81.6486C108.362 80.8594 110.387 80.4105 112.444 80.3224C114.076 80.2533 116.023 80.6171 116.686 82.1094C117.088 83.0148 116.874 84.0759 116.506 84.9957C116.138 85.9156 114.417 87.7724 115.408 87.7521C117.896 87.7013 118.958 89.926 117.696 93.3829C116.964 95.3878 121.506 95.3107 123.623 95.579C122.032 96.1692 120.417 96.7651 118.726 96.9066C117.035 97.0482 115.229 96.6806 113.967 95.5469C112.601 94.3201 112.076 92.4147 111.843 90.5933C111.611 88.7718 111.599 86.896 110.982 85.1667C110.364 83.4375 108.946 81.827 107.116 81.6737" fill="#2F2E41"/>
</g>
<defs>
<clipPath id="clip0_33_4743">
<rect width="142.31" height="254.061" fill="white"/>
</clipPath>
</defs>
</svg>
