<svg width="168" height="164" viewBox="0 0 168 164" fill="none" xmlns="http://www.w3.org/2000/svg">
<path d="M106.839 36.5894H97.9262V112.575C97.9262 113.767 97.6914 114.948 97.2352 116.049C96.7789 117.151 96.1102 118.151 95.2672 118.994C94.4242 119.837 93.4234 120.506 92.322 120.962C91.2205 121.418 90.04 121.653 88.8478 121.653H20.7068V121.74C20.7068 122.932 20.9416 124.113 21.3978 125.214C21.8541 126.316 22.5228 127.317 23.3658 128.16C24.2088 129.003 25.2096 129.671 26.311 130.127C27.4125 130.584 28.593 130.819 29.7852 130.819H106.839C108.031 130.819 109.212 130.584 110.313 130.127C111.414 129.671 112.415 129.003 113.258 128.16C114.101 127.317 114.77 126.316 115.226 125.214C115.682 124.113 115.917 122.932 115.917 121.74V45.6677C115.917 43.26 114.961 40.9509 113.258 39.2484C111.556 37.5458 109.247 36.5894 106.839 36.5894Z" fill="#F2F2F2"/>
<path d="M149.089 157.343C149.247 157.35 149.403 157.308 149.537 157.224C149.67 157.139 149.774 157.016 149.835 156.87C149.896 156.724 149.911 156.564 149.877 156.409C149.844 156.255 149.763 156.115 149.647 156.007L149.595 155.797C149.602 155.781 149.609 155.764 149.616 155.747C149.775 155.372 150.041 155.052 150.381 154.827C150.722 154.602 151.121 154.483 151.528 154.485C151.936 154.486 152.334 154.608 152.673 154.836C153.011 155.063 153.275 155.385 153.432 155.761C154.056 157.264 154.85 158.77 155.046 160.36C155.132 161.062 155.096 161.774 154.938 162.464C156.404 159.267 157.166 155.791 157.17 152.274C157.171 151.391 157.122 150.509 157.024 149.632C156.942 148.913 156.83 148.199 156.686 147.49C155.9 143.643 154.213 140.038 151.764 136.97C150.578 136.323 149.619 135.328 149.017 134.12C148.798 133.685 148.644 133.222 148.558 132.743C148.692 132.76 149.063 130.724 148.962 130.599C149.148 130.316 149.482 130.175 149.685 129.899C150.698 128.527 152.092 128.766 152.821 130.632C154.376 131.417 154.391 132.719 153.437 133.971C152.829 134.767 152.746 135.845 152.213 136.698C152.268 136.768 152.325 136.836 152.38 136.906C153.382 138.195 154.255 139.578 154.987 141.037C154.809 139.403 155.022 137.75 155.607 136.214C156.201 134.782 157.313 133.576 158.292 132.339C158.551 132.006 158.903 131.758 159.303 131.626C159.703 131.493 160.134 131.482 160.54 131.594C160.947 131.706 161.311 131.936 161.586 132.255C161.862 132.574 162.037 132.967 162.089 133.385C162.091 133.404 162.093 133.422 162.095 133.44C161.949 133.522 161.807 133.609 161.668 133.702C161.492 133.818 161.357 133.986 161.278 134.181C161.2 134.376 161.182 134.591 161.228 134.796C161.273 135.002 161.38 135.189 161.534 135.333C161.687 135.477 161.881 135.571 162.089 135.603L162.11 135.606C162.058 136.131 161.967 136.65 161.836 137.161C163.093 142.02 160.38 143.79 156.506 143.87C156.421 143.914 156.337 143.958 156.252 143.999C156.987 146.084 157.449 148.255 157.624 150.458C157.724 151.758 157.718 153.064 157.607 154.363L157.613 154.317C157.894 152.873 158.665 151.569 159.795 150.627C161.474 149.248 163.845 148.74 165.657 147.632C165.849 147.508 166.073 147.442 166.302 147.442C166.53 147.441 166.754 147.506 166.948 147.628C167.141 147.751 167.295 147.926 167.391 148.134C167.488 148.341 167.524 148.572 167.493 148.798L167.486 148.847C167.216 148.957 166.953 149.083 166.699 149.226C166.553 149.308 166.411 149.395 166.272 149.487C166.097 149.604 165.961 149.771 165.883 149.967C165.804 150.162 165.786 150.377 165.832 150.582C165.878 150.788 165.984 150.975 166.138 151.119C166.291 151.263 166.485 151.357 166.693 151.389L166.714 151.392C166.73 151.394 166.743 151.397 166.758 151.399C166.297 152.5 165.649 153.514 164.844 154.396C164.058 158.638 160.684 159.041 157.074 157.805H157.072C156.676 159.526 156.102 161.202 155.359 162.804H149.242C149.22 162.736 149.201 162.666 149.181 162.598C149.747 162.634 150.316 162.6 150.874 162.497C150.42 161.94 149.966 161.379 149.512 160.822C149.502 160.812 149.492 160.801 149.484 160.789C149.253 160.504 149.021 160.221 148.791 159.936L148.791 159.936C148.778 159.062 148.879 158.191 149.089 157.343Z" fill="#F2F2F2"/>
<path d="M81.7148 26.2533C81.9381 26.5916 82.2323 26.8774 82.5769 27.0909C82.9216 27.3044 83.3085 27.4405 83.7109 27.4898C84.1133 27.539 84.5216 27.5003 84.9076 27.3762C85.2936 27.2521 85.648 27.0457 85.9463 26.7712L98.664 32.5089L101.116 29.3814L85.9611 22.6771C85.4617 22.2093 84.808 21.9409 84.124 21.9228C83.4399 21.9048 82.773 22.1383 82.2495 22.5791C81.7261 23.0199 81.3826 23.6374 81.284 24.3146C81.1855 24.9918 81.3387 25.6816 81.7148 26.2533Z" fill="#A0616A"/>
<path d="M136.294 29.8309L137.555 36.9785C137.614 37.312 137.602 37.654 137.521 37.9828C137.44 38.3115 137.291 38.6197 137.084 38.8874C136.876 39.1551 136.615 39.3766 136.317 39.5375C136.019 39.6984 135.691 39.7952 135.354 39.8218L113.921 41.5072L88.7278 30.2321L91.7368 24.52L113.607 31.4456L136.294 29.8309Z" fill="#2DBE5F"/>
<path d="M86.1321 24.709H9.07839C4.06453 24.709 0 28.7735 0 33.7874V109.86C0 114.874 4.06453 118.938 9.07839 118.938H86.1321C91.146 118.938 95.2105 114.874 95.2105 109.86V33.7874C95.2105 28.7735 91.146 24.709 86.1321 24.709Z" fill="#F2F2F2"/>
<path d="M9.0786 26.5757C8.13158 26.5757 7.19383 26.7622 6.31891 27.1246C5.44398 27.487 4.649 28.0182 3.97936 28.6879C3.30972 29.3575 2.77852 30.1525 2.41612 31.0274C2.05371 31.9023 1.86719 32.8401 1.86719 33.7871V109.86C1.86719 111.772 2.62696 113.606 3.97936 114.959C5.33176 116.311 7.16601 117.071 9.0786 117.071H58.2561C62.8639 117.071 67.4265 116.163 71.6835 114.4C75.9405 112.637 79.8085 110.052 83.0667 106.794C86.3249 103.536 88.9094 99.6679 90.6727 95.4109C92.436 91.1539 93.3436 86.5913 93.3436 81.9836V33.7871C93.3436 32.8401 93.157 31.9023 92.7946 31.0274C92.4322 30.1525 91.901 29.3575 91.2314 28.6879C90.5618 28.0182 89.7668 27.487 88.8918 27.1246C88.0169 26.7622 87.0792 26.5757 86.1321 26.5757H9.0786Z" fill="white"/>
<path d="M69.1453 49.6621H25.8967C25.4999 49.6621 25.1193 49.5044 24.8387 49.2238C24.558 48.9432 24.4004 48.5626 24.4004 48.1658C24.4004 47.7689 24.558 47.3883 24.8387 47.1077C25.1193 46.8271 25.4999 46.6694 25.8967 46.6694H69.1453C69.5422 46.6694 69.9228 46.8271 70.2034 47.1077C70.484 47.3883 70.6416 47.7689 70.6416 48.1658C70.6416 48.5626 70.484 48.9432 70.2034 49.2238C69.9228 49.5044 69.5422 49.6621 69.1453 49.6621Z" fill="#F2F2F2"/>
<path d="M69.1453 81.5713H25.8967C25.4999 81.5713 25.1193 81.4136 24.8387 81.133C24.558 80.8524 24.4004 80.4718 24.4004 80.0749C24.4004 79.6781 24.558 79.2975 24.8387 79.0169C25.1193 78.7363 25.4999 78.5786 25.8967 78.5786H69.1453C69.5422 78.5786 69.9228 78.7363 70.2034 79.0169C70.484 79.2975 70.6416 79.6781 70.6416 80.0749C70.6416 80.4718 70.484 80.8524 70.2034 81.133C69.9228 81.4136 69.5422 81.5713 69.1453 81.5713Z" fill="#F2F2F2"/>
<path d="M86.7078 65.6269H8.33445C7.93761 65.6269 7.55701 65.4693 7.2764 65.1887C6.99578 64.9081 6.83813 64.5274 6.83813 64.1306C6.83813 63.7337 6.99578 63.3532 7.2764 63.0725C7.55701 62.7919 7.93761 62.6343 8.33445 62.6343H86.7078C87.1046 62.6343 87.4852 62.7919 87.7658 63.0725C88.0464 63.3532 88.2041 63.7337 88.2041 64.1306C88.2041 64.5274 88.0464 64.9081 87.7658 65.1887C87.4852 65.4693 87.1046 65.6269 86.7078 65.6269Z" fill="#F2F2F2"/>
<path d="M133.586 61.3352L125.778 77.9684L155.812 74.9266L149.543 58.959L133.586 61.3352Z" fill="#A0616A"/>
<path d="M140.568 156.937L137.721 156.913L136.46 145.673L140.663 145.708L140.568 156.937Z" fill="#A0616A"/>
<path d="M131.447 161.465C131.445 161.802 131.576 162.127 131.813 162.368C132.049 162.609 132.372 162.746 132.709 162.749L138.371 162.796L139.362 160.787L139.726 162.806L141.862 162.826L141.323 155.624L140.58 155.574L137.548 155.365L136.57 155.3L136.553 157.338L132.005 160.422C131.835 160.538 131.695 160.693 131.598 160.875C131.5 161.056 131.449 161.259 131.447 161.465Z" fill="#2F2E41"/>
<path d="M109.055 156.95L106.34 156.09L108.438 144.976L112.444 146.245L109.055 156.95Z" fill="#A0616A"/>
<path d="M99.0061 158.598C98.9045 158.919 98.9348 159.269 99.0902 159.568C99.2457 159.868 99.5136 160.094 99.8353 160.196L105.233 161.905L106.771 160.275L106.526 162.313L108.562 162.959L110.162 155.916L109.466 155.65L106.63 154.56L105.714 154.21L105.099 156.153L99.8456 157.765C99.6488 157.826 99.4696 157.933 99.3233 158.078C99.1771 158.223 99.0683 158.401 99.0061 158.598Z" fill="#2F2E41"/>
<path d="M154.444 70.249L127.136 75.2528C127.136 75.2528 122.756 78.5292 123.928 79.7026C125.1 80.876 125.281 80.6942 124.511 81.464C123.742 82.2338 122.077 83.2629 122.061 83.9364C122.044 84.61 109.824 114.821 109.824 114.821C109.824 114.821 111.182 114.142 110.164 115.161C109.145 116.179 109.145 117.021 109.145 117.021L104.393 149.106L112.111 149.561L119.668 120.309L136.525 92.9814C136.525 92.9814 138.198 117.35 138.268 118.971C138.338 120.592 139.357 118.555 138.338 120.592C137.32 122.629 136.641 121.271 137.32 122.629C137.999 123.987 134.874 151.63 134.874 151.63H141.919L157.028 94.3331C157.028 94.3331 162.404 77.9526 154.444 70.249Z" fill="#2F2E41"/>
<path d="M146.4 24.4188L135.461 23.2822L132.627 26.9617L129.325 28.7201C127.928 29.4643 126.775 30.5951 126.003 31.9774C125.232 33.3597 124.875 34.935 124.975 36.5148L128.833 58.9591C128.833 58.9591 125.574 66.2978 127.815 68.1244C130.056 69.951 126.083 74.4746 130.87 72.1978C135.658 69.9211 156.329 72.5373 156.329 72.5373L151.916 59.9775L155.213 47.6358L155.576 37.2874C155.643 35.3537 155.07 33.4518 153.944 31.8783C152.818 30.3048 151.203 29.148 149.35 28.5883L148.889 28.449L146.4 24.4188Z" fill="#2DBE5F"/>
<path d="M161.459 16.0328C161.531 19.1161 160.379 22.1016 158.723 24.7239C158.232 23.193 157.347 21.7997 156.425 20.4715C156.89 23.3448 156.395 26.2911 155.017 28.8546C154.968 28.8893 154.918 28.9216 154.866 28.9513C153.516 29.7629 151.806 30.0916 150.346 29.5054C153.362 26.2546 153.746 20.8684 151.217 17.2221C150.502 16.1874 149.576 15.2723 149.132 14.0949C148.432 12.2162 149.105 10.1476 149.53 8.18889C149.927 6.36588 149.996 4.19648 148.773 2.86045C148.904 2.67374 149.082 2.52512 149.289 2.42982C149.496 2.33451 149.724 2.29596 149.951 2.31809C150.705 2.42461 151.254 3.08005 151.604 3.75511C151.953 4.43015 152.184 5.17833 152.671 5.7614C153.573 6.85274 155.11 7.11076 156.405 7.68592C159.54 9.08264 161.384 12.602 161.459 16.0328Z" fill="#2F2E41"/>
<path d="M80.6716 162.822C80.6715 162.875 80.6818 162.928 80.702 162.977C80.7223 163.026 80.7521 163.07 80.7896 163.108C80.8271 163.145 80.8717 163.175 80.9208 163.195C80.9699 163.216 81.0225 163.226 81.0756 163.226H167.056C167.163 163.226 167.266 163.183 167.342 163.108C167.417 163.032 167.46 162.929 167.46 162.822C167.46 162.715 167.417 162.612 167.342 162.536C167.266 162.461 167.163 162.418 167.056 162.418H81.0756C81.0225 162.418 80.9699 162.428 80.9208 162.448C80.8717 162.469 80.8271 162.498 80.7896 162.536C80.7521 162.573 80.7223 162.618 80.7021 162.667C80.6818 162.716 80.6715 162.769 80.6716 162.822Z" fill="#CCCCCC"/>
<path d="M162.136 87.4935C163.824 87.4935 165.191 86.1257 165.191 84.4384C165.191 82.7511 163.824 81.3833 162.136 81.3833C160.449 81.3833 159.081 82.7511 159.081 84.4384C159.081 86.1257 160.449 87.4935 162.136 87.4935Z" fill="#2DBE5F"/>
<path d="M135.064 14.2698C135.243 13.6426 134.008 17.4764 134.604 17.5456C137.319 17.857 141.045 19.4782 142.935 20.2345C143.021 20.2246 143.106 20.2147 143.188 20.2023C143.391 20.1801 143.589 20.148 143.784 20.1109C148.187 19.278 149.88 12.5156 149.88 12.4538C149.88 12.1498 149.15 3.8001 148.001 3.67654C147.699 3.64378 147.395 3.62728 147.092 3.6271H144.239C143.649 3.49992 143.051 3.41322 142.449 3.36759H142.444C136.702 2.93011 132.174 6.42988 132.598 10.6885C132.6 10.6934 132.605 10.6983 132.608 10.7033C132.73 10.8862 132.838 11.0592 132.933 11.2248C133.026 11.3805 133.103 11.5288 133.171 11.6697C133.694 12.7572 132.349 14.1256 133.241 14.381C134.428 14.7207 130.121 25.8863 134.817 25.8863C132.533 26.5358 134.57 15.9999 135.064 14.2698Z" fill="#2F2E41"/>
<path d="M140.19 20.8213C143.92 20.8213 146.943 17.7979 146.943 14.0684C146.943 10.3388 143.92 7.31543 140.19 7.31543C136.46 7.31543 133.437 10.3388 133.437 14.0684C133.437 17.7979 136.46 20.8213 140.19 20.8213Z" fill="#A0616A"/>
<path d="M132.598 11.0564C132.71 11.1157 132.821 11.1701 132.933 11.2245C133.051 11.2813 133.169 11.3382 133.286 11.3901C135.548 12.4158 137.388 12.5295 138.505 11.0564C138.535 10.2813 138.709 9.51857 139.018 8.80725C138.964 9.60217 139.173 10.3929 139.614 11.0564H141.863C144.179 12.5937 145.369 12.7544 143.761 17.8014C143.313 19.2077 141.531 27.3912 142.232 28.6048C142.435 28.5825 144.592 19.6191 144.788 19.582C149.19 18.7491 151.987 11.4964 151.629 11.0861C151.631 9.91934 151.363 8.76802 150.845 7.72223C150.191 6.39727 149.171 5.28744 147.905 4.52398C147.151 4.15829 146.365 3.86291 145.557 3.64161C145.536 3.63667 145.519 3.63172 145.499 3.62679C145.251 3.56005 144.998 3.49826 144.745 3.44635C144.223 3.33603 143.694 3.25598 143.163 3.20661C143.125 3.20414 143.087 3.20166 143.052 3.20166C142.84 3.20216 142.632 3.25933 142.449 3.36727C142.446 3.36727 142.446 3.36973 142.444 3.36973C142.313 3.44608 142.199 3.54775 142.108 3.66879C141.948 3.87244 141.862 4.12414 141.863 4.38308H139.359C139.266 4.38308 139.173 4.38555 139.081 4.39049C137.41 4.4476 135.82 5.12633 134.622 6.29385C133.425 7.46137 132.707 9.03365 132.608 10.703C132.6 10.8216 132.598 10.9378 132.598 11.0564Z" fill="#2F2E41"/>
<path d="M147.363 8.89776C149.82 8.89776 151.812 6.90593 151.812 4.44888C151.812 1.99183 149.82 0 147.363 0C144.906 0 142.914 1.99183 142.914 4.44888C142.914 6.90593 144.906 8.89776 147.363 8.89776Z" fill="#2F2E41"/>
<path d="M162.171 85.6983C162.388 85.3559 162.528 84.9705 162.581 84.5686C162.635 84.1667 162.6 83.758 162.48 83.3708C162.36 82.9835 162.158 82.6269 161.886 82.3257C161.615 82.0245 161.282 81.7858 160.909 81.6261L160.931 67.6741L157.073 66.7192L157.168 83.2905C156.946 83.9377 156.969 84.644 157.233 85.2754C157.497 85.9068 157.983 86.4194 158.6 86.7162C159.217 87.013 159.921 87.0734 160.579 86.8857C161.237 86.6981 161.803 86.2756 162.171 85.6983Z" fill="#A0616A"/>
<path d="M143.068 34.4469L149.071 30.3672C149.351 30.1769 149.667 30.0473 150.001 29.9866C150.334 29.9259 150.676 29.9356 151.005 30.0149C151.334 30.0943 151.643 30.2416 151.912 30.4474C152.181 30.6532 152.404 30.913 152.566 31.2101L162.887 50.0696L162.926 77.6708L156.483 77.2669L153.838 54.4796L143.068 34.4469Z" fill="#2DBE5F"/>
<path d="M96.9635 97.0425H32.8067C31.4113 97.0425 30.073 97.5968 29.0862 98.5836C28.0995 99.5703 27.5452 100.909 27.5452 102.304C27.5452 103.699 28.0995 105.038 29.0862 106.024C30.073 107.011 31.4113 107.566 32.8067 107.566H96.9635C98.3589 107.566 99.6973 107.011 100.684 106.024C101.671 105.038 102.225 103.699 102.225 102.304C102.225 100.909 101.671 99.5703 100.684 98.5836C99.6973 97.5968 98.3589 97.0425 96.9635 97.0425Z" fill="white"/>
<path d="M96.9636 107.905H32.8068C31.3213 107.905 29.8967 107.315 28.8463 106.265C27.7959 105.214 27.2058 103.79 27.2058 102.304C27.2058 100.819 27.7959 99.394 28.8463 98.3436C29.8967 97.2932 31.3213 96.7031 32.8068 96.7031H96.9636C98.4491 96.7031 99.8737 97.2932 100.924 98.3436C101.975 99.394 102.565 100.819 102.565 102.304C102.565 103.79 101.975 105.214 100.924 106.265C99.8737 107.315 98.4491 107.905 96.9636 107.905ZM32.8068 97.382C31.5014 97.382 30.2494 97.9006 29.3264 98.8237C28.4033 99.7467 27.8847 100.999 27.8847 102.304C27.8847 103.61 28.4033 104.861 29.3264 105.785C30.2494 106.708 31.5014 107.226 32.8068 107.226H96.9636C98.269 107.226 99.521 106.708 100.444 105.785C101.367 104.861 101.886 103.61 101.886 102.304C101.886 100.999 101.367 99.7467 100.444 98.8237C99.521 97.9006 98.269 97.382 96.9636 97.382H32.8068Z" fill="#2DBE5F"/>
<path d="M100.747 120.004H72.4341C72.0372 120.004 71.6566 119.846 71.376 119.566C71.0954 119.285 70.9377 118.904 70.9377 118.508C70.9377 118.111 71.0954 117.73 71.376 117.449C71.6566 117.169 72.0372 117.011 72.4341 117.011H100.747C101.144 117.011 101.524 117.169 101.805 117.449C102.085 117.73 102.243 118.111 102.243 118.508C102.243 118.904 102.085 119.285 101.805 119.566C101.524 119.846 101.144 120.004 100.747 120.004Z" fill="#2DBE5F"/>
</svg>
